<?xml version="1.0" encoding="UTF-8" standalone="no"?>
<!DOCTYPE svg PUBLIC "-//W3C//DTD SVG 1.1//EN"
 "http://www.w3.org/Graphics/SVG/1.1/DTD/svg11.dtd">
<!-- Generated by graphviz version 2.40.1 (20161225.0304)
 -->
<!-- Title: dependencies Pages: 1 -->
<svg width="504pt" height="211pt"
 viewBox="0.00 0.00 504.00 211.00" xmlns="http://www.w3.org/2000/svg" xmlns:xlink="http://www.w3.org/1999/xlink">
<g id="graph0" class="graph" transform="scale(1 1) rotate(0) translate(4 207)">
<title>dependencies</title>
<polygon fill="#ffffff" stroke="transparent" points="-4,4 -4,-207 500,-207 500,4 -4,4"/>
<text text-anchor="start" x="227.0091" y="-42.4" font-family="sans-serif" font-weight="bold" font-size="14.00" fill="#000000">Legend</text>
<polygon fill="#ffffb3" stroke="transparent" points="14,-10 14,-30 34,-30 34,-10 14,-10"/>
<text text-anchor="start" x="37.629" y="-15.4" font-family="sans-serif" font-size="14.00" fill="#000000"> &#160;Declarations</text>
<polygon fill="#8dd3c7" stroke="transparent" points="127,-10 127,-30 147,-30 147,-10 127,-10"/>
<text text-anchor="start" x="150.7251" y="-15.4" font-family="sans-serif" font-size="14.00" fill="#000000"> &#160;Module</text>
<polygon fill="#80b1d3" stroke="transparent" points="213,-10 213,-30 233,-30 233,-10 213,-10"/>
<text text-anchor="start" x="236.7812" y="-15.4" font-family="sans-serif" font-size="14.00" fill="#000000"> &#160;Bootstrap</text>
<polygon fill="#fdb462" stroke="transparent" points="310,-10 310,-30 330,-30 330,-10 310,-10"/>
<text text-anchor="start" x="333.6732" y="-15.4" font-family="sans-serif" font-size="14.00" fill="#000000"> &#160;Providers</text>
<polygon fill="#fb8072" stroke="transparent" points="406,-10 406,-30 426,-30 426,-10 406,-10"/>
<text text-anchor="start" x="429.7258" y="-15.4" font-family="sans-serif" font-size="14.00" fill="#000000"> &#160;Exports</text>
<g id="clust1" class="cluster">
<title>cluster_CoreModule</title>
<polygon fill="none" stroke="#000000" stroke-dasharray="1,5" points="41,-70 41,-195 455,-195 455,-70 41,-70"/>
</g>
<g id="clust6" class="cluster">
<title>cluster_CoreModule_providers</title>
<polygon fill="none" stroke="#000000" points="49,-78 49,-130 447,-130 447,-78 49,-78"/>
</g>
<!-- CollectionService -->
<g id="node1" class="node">
<title>CollectionService</title>
<ellipse fill="#fdb462" stroke="#000000" cx="359" cy="-104" rx="80.4519" ry="18"/>
<text text-anchor="middle" x="359" y="-99.8" font-family="Times,serif" font-size="14.00" fill="#000000">CollectionService</text>
</g>
<!-- CoreModule -->
<g id="node3" class="node">
<title>CoreModule</title>
<polygon fill="#8dd3c7" stroke="#000000" points="302.2619,-187 299.2619,-191 278.2619,-191 275.2619,-187 215.7381,-187 215.7381,-151 302.2619,-151 302.2619,-187"/>
<text text-anchor="middle" x="259" y="-164.8" font-family="Times,serif" font-size="14.00" fill="#000000">CoreModule</text>
</g>
<!-- CollectionService&#45;&gt;CoreModule -->
<g id="edge1" class="edge">
<title>CollectionService&#45;&gt;CoreModule</title>
<path fill="none" stroke="#000000" d="M290.5776,-113.591C290.5776,-113.591 290.5776,-140.748 290.5776,-140.748"/>
<polygon fill="#000000" stroke="#000000" points="287.0777,-140.7479 290.5776,-150.748 294.0777,-140.748 287.0777,-140.7479"/>
</g>
<!-- JsonplaceholderService -->
<g id="node2" class="node">
<title>JsonplaceholderService</title>
<ellipse fill="#fdb462" stroke="#000000" cx="159" cy="-104" rx="102.4062" ry="18"/>
<text text-anchor="middle" x="159" y="-99.8" font-family="Times,serif" font-size="14.00" fill="#000000">JsonplaceholderService</text>
</g>
<!-- JsonplaceholderService&#45;&gt;CoreModule -->
<g id="edge2" class="edge">
<title>JsonplaceholderService&#45;&gt;CoreModule</title>
<path fill="none" stroke="#000000" d="M238.411,-115.6207C238.411,-115.6207 238.411,-140.8534 238.411,-140.8534"/>
<polygon fill="#000000" stroke="#000000" points="234.9111,-140.8533 238.411,-150.8534 241.9111,-140.8534 234.9111,-140.8533"/>
</g>
</g>
</svg>
