<?xml version="1.0" encoding="UTF-8" standalone="no"?>
<!DOCTYPE svg PUBLIC "-//W3C//DTD SVG 1.1//EN"
 "http://www.w3.org/Graphics/SVG/1.1/DTD/svg11.dtd">
<!-- Generated by graphviz version 2.40.1 (20161225.0304)
 -->
<!-- Title: dependencies Pages: 1 -->
<svg width="504pt" height="284pt"
 viewBox="0.00 0.00 504.00 284.00" xmlns="http://www.w3.org/2000/svg" xmlns:xlink="http://www.w3.org/1999/xlink">
<g id="graph0" class="graph" transform="scale(1 1) rotate(0) translate(4 280)">
<title>dependencies</title>
<polygon fill="#ffffff" stroke="transparent" points="-4,4 -4,-280 500,-280 500,4 -4,4"/>
<text text-anchor="start" x="227.0091" y="-42.4" font-family="sans-serif" font-weight="bold" font-size="14.00" fill="#000000">Legend</text>
<polygon fill="#ffffb3" stroke="transparent" points="14,-10 14,-30 34,-30 34,-10 14,-10"/>
<text text-anchor="start" x="37.629" y="-15.4" font-family="sans-serif" font-size="14.00" fill="#000000"> &#160;Declarations</text>
<polygon fill="#8dd3c7" stroke="transparent" points="127,-10 127,-30 147,-30 147,-10 127,-10"/>
<text text-anchor="start" x="150.7251" y="-15.4" font-family="sans-serif" font-size="14.00" fill="#000000"> &#160;Module</text>
<polygon fill="#80b1d3" stroke="transparent" points="213,-10 213,-30 233,-30 233,-10 213,-10"/>
<text text-anchor="start" x="236.7812" y="-15.4" font-family="sans-serif" font-size="14.00" fill="#000000"> &#160;Bootstrap</text>
<polygon fill="#fdb462" stroke="transparent" points="310,-10 310,-30 330,-30 330,-10 310,-10"/>
<text text-anchor="start" x="333.6732" y="-15.4" font-family="sans-serif" font-size="14.00" fill="#000000"> &#160;Providers</text>
<polygon fill="#fb8072" stroke="transparent" points="406,-10 406,-30 426,-30 426,-10 406,-10"/>
<text text-anchor="start" x="429.7258" y="-15.4" font-family="sans-serif" font-size="14.00" fill="#000000"> &#160;Exports</text>
<g id="clust1" class="cluster">
<title>cluster_SharedModule</title>
<polygon fill="none" stroke="#000000" stroke-dasharray="1,5" points="50,-70 50,-268 446,-268 446,-70 50,-70"/>
</g>
<g id="clust2" class="cluster">
<title>cluster_SharedModule_declarations</title>
<polygon fill="none" stroke="#000000" points="64,-78 64,-130 432,-130 432,-78 64,-78"/>
</g>
<g id="clust7" class="cluster">
<title>cluster_SharedModule_exports</title>
<polygon fill="none" stroke="#000000" points="58,-208 58,-260 438,-260 438,-208 58,-208"/>
</g>
<!-- MenuComponent -->
<g id="node1" class="node">
<title>MenuComponent</title>
<polygon fill="#ffffb3" stroke="#000000" points="423.9916,-122 310.0084,-122 310.0084,-86 423.9916,-86 423.9916,-122"/>
<text text-anchor="middle" x="367" y="-99.8" font-family="Times,serif" font-size="14.00" fill="#000000">MenuComponent</text>
</g>
<!-- SharedModule -->
<g id="node4" class="node">
<title>SharedModule</title>
<polygon fill="#8dd3c7" stroke="#000000" points="293.4231,-187 290.4231,-191 269.4231,-191 266.4231,-187 194.5769,-187 194.5769,-151 293.4231,-151 293.4231,-187"/>
<text text-anchor="middle" x="244" y="-164.8" font-family="Times,serif" font-size="14.00" fill="#000000">SharedModule</text>
</g>
<!-- MenuComponent&#45;&gt;SharedModule -->
<g id="edge1" class="edge">
<title>MenuComponent&#45;&gt;SharedModule</title>
<path fill="none" stroke="#000000" d="M386.7486,-122.0225C386.7486,-139.3734 386.7486,-163 386.7486,-163 386.7486,-163 303.5259,-163 303.5259,-163"/>
<polygon fill="#000000" stroke="#000000" points="303.5259,-159.5001 293.5259,-163 303.5259,-166.5001 303.5259,-159.5001"/>
</g>
<!-- StateDirective -->
<g id="node2" class="node">
<title>StateDirective</title>
<polygon fill="#ffffb3" stroke="#000000" points="292.0758,-122 195.9242,-122 195.9242,-86 292.0758,-86 292.0758,-122"/>
<text text-anchor="middle" x="244" y="-99.8" font-family="Times,serif" font-size="14.00" fill="#000000">StateDirective</text>
</g>
<!-- StateDirective&#45;&gt;SharedModule -->
<g id="edge2" class="edge">
<title>StateDirective&#45;&gt;SharedModule</title>
<path fill="none" stroke="#000000" d="M244,-122.1061C244,-122.1061 244,-140.991 244,-140.991"/>
<polygon fill="#000000" stroke="#000000" points="240.5001,-140.9909 244,-150.991 247.5001,-140.991 240.5001,-140.9909"/>
</g>
<!-- UserIdDirective -->
<g id="node3" class="node">
<title>UserIdDirective</title>
<polygon fill="#ffffb3" stroke="#000000" points="178.1699,-122 71.8301,-122 71.8301,-86 178.1699,-86 178.1699,-122"/>
<text text-anchor="middle" x="125" y="-99.8" font-family="Times,serif" font-size="14.00" fill="#000000">UserIdDirective</text>
</g>
<!-- UserIdDirective&#45;&gt;SharedModule -->
<g id="edge3" class="edge">
<title>UserIdDirective&#45;&gt;SharedModule</title>
<path fill="none" stroke="#000000" d="M141.195,-122.0225C141.195,-139.3734 141.195,-163 141.195,-163 141.195,-163 184.7053,-163 184.7053,-163"/>
<polygon fill="#000000" stroke="#000000" points="184.7053,-166.5001 194.7053,-163 184.7052,-159.5001 184.7053,-166.5001"/>
</g>
<!-- MenuComponent  -->
<g id="node5" class="node">
<title>MenuComponent </title>
<polygon fill="#fb8072" stroke="#000000" points="429.9926,-252 312.0074,-252 312.0074,-216 429.9926,-216 429.9926,-252"/>
<text text-anchor="middle" x="371" y="-229.8" font-family="Times,serif" font-size="14.00" fill="#000000">MenuComponent </text>
</g>
<!-- SharedModule&#45;&gt;MenuComponent  -->
<g id="edge4" class="edge">
<title>SharedModule&#45;&gt;MenuComponent </title>
<path fill="none" stroke="#000000" stroke-dasharray="5,2" d="M293.3528,-175C320.8107,-175 349.5014,-175 349.5014,-175 349.5014,-175 349.5014,-205.9775 349.5014,-205.9775"/>
<polygon fill="#000000" stroke="#000000" points="346.0015,-205.9774 349.5014,-215.9775 353.0015,-205.9775 346.0015,-205.9774"/>
</g>
<!-- StateDirective  -->
<g id="node6" class="node">
<title>StateDirective </title>
<polygon fill="#fb8072" stroke="#000000" points="293.5767,-252 194.4233,-252 194.4233,-216 293.5767,-216 293.5767,-252"/>
<text text-anchor="middle" x="244" y="-229.8" font-family="Times,serif" font-size="14.00" fill="#000000">StateDirective </text>
</g>
<!-- SharedModule&#45;&gt;StateDirective  -->
<g id="edge5" class="edge">
<title>SharedModule&#45;&gt;StateDirective </title>
<path fill="none" stroke="#000000" stroke-dasharray="5,2" d="M244,-187.1061C244,-187.1061 244,-205.991 244,-205.991"/>
<polygon fill="#000000" stroke="#000000" points="240.5001,-205.9909 244,-215.991 247.5001,-205.991 240.5001,-205.9909"/>
</g>
<!-- UserIdDirective  -->
<g id="node7" class="node">
<title>UserIdDirective </title>
<polygon fill="#fb8072" stroke="#000000" points="175.6703,-252 66.3297,-252 66.3297,-216 175.6703,-216 175.6703,-252"/>
<text text-anchor="middle" x="121" y="-229.8" font-family="Times,serif" font-size="14.00" fill="#000000">UserIdDirective </text>
</g>
<!-- SharedModule&#45;&gt;UserIdDirective  -->
<g id="edge6" class="edge">
<title>SharedModule&#45;&gt;UserIdDirective </title>
<path fill="none" stroke="#000000" stroke-dasharray="5,2" d="M194.7674,-175C155.3291,-175 106.555,-175 106.555,-175 106.555,-175 106.555,-205.9775 106.555,-205.9775"/>
<polygon fill="#000000" stroke="#000000" points="103.0551,-205.9774 106.555,-215.9775 110.0551,-205.9775 103.0551,-205.9774"/>
</g>
</g>
</svg>
