<?xml version="1.0" encoding="UTF-8" standalone="no"?>
<!DOCTYPE svg PUBLIC "-//W3C//DTD SVG 1.1//EN"
 "http://www.w3.org/Graphics/SVG/1.1/DTD/svg11.dtd">
<!-- Generated by graphviz version 2.40.1 (20161225.0304)
 -->
<!-- Title: dependencies Pages: 1 -->
<svg width="2237pt" height="436pt"
 viewBox="0.00 0.00 2237.00 436.00" xmlns="http://www.w3.org/2000/svg" xmlns:xlink="http://www.w3.org/1999/xlink">
<g id="graph0" class="graph" transform="scale(1 1) rotate(0) translate(4 432)">
<title>dependencies</title>
<polygon fill="#ffffff" stroke="transparent" points="-4,4 -4,-432 2233,-432 2233,4 -4,4"/>
<text text-anchor="start" x="1093.5091" y="-42.4" font-family="sans-serif" font-weight="bold" font-size="14.00" fill="#000000">Legend</text>
<polygon fill="#ffffb3" stroke="transparent" points="880.5,-10 880.5,-30 900.5,-30 900.5,-10 880.5,-10"/>
<text text-anchor="start" x="904.129" y="-15.4" font-family="sans-serif" font-size="14.00" fill="#000000"> &#160;Declarations</text>
<polygon fill="#8dd3c7" stroke="transparent" points="993.5,-10 993.5,-30 1013.5,-30 1013.5,-10 993.5,-10"/>
<text text-anchor="start" x="1017.2251" y="-15.4" font-family="sans-serif" font-size="14.00" fill="#000000"> &#160;Module</text>
<polygon fill="#80b1d3" stroke="transparent" points="1079.5,-10 1079.5,-30 1099.5,-30 1099.5,-10 1079.5,-10"/>
<text text-anchor="start" x="1103.2812" y="-15.4" font-family="sans-serif" font-size="14.00" fill="#000000"> &#160;Bootstrap</text>
<polygon fill="#fdb462" stroke="transparent" points="1176.5,-10 1176.5,-30 1196.5,-30 1196.5,-10 1176.5,-10"/>
<text text-anchor="start" x="1200.1732" y="-15.4" font-family="sans-serif" font-size="14.00" fill="#000000"> &#160;Providers</text>
<polygon fill="#fb8072" stroke="transparent" points="1272.5,-10 1272.5,-30 1292.5,-30 1292.5,-10 1272.5,-10"/>
<text text-anchor="start" x="1296.2258" y="-15.4" font-family="sans-serif" font-size="14.00" fill="#000000"> &#160;Exports</text>
<g id="clust1" class="cluster">
<title>cluster_AppModule</title>
<polygon fill="none" stroke="#000000" stroke-dasharray="1,5" points="164,-146 164,-420 832,-420 832,-146 164,-146"/>
</g>
<g id="clust2" class="cluster">
<title>cluster_AppModule_declarations</title>
<polygon fill="none" stroke="#000000" points="702,-230 702,-282 824,-282 824,-230 702,-230"/>
</g>
<g id="clust4" class="cluster">
<title>cluster_AppModule_imports</title>
<polygon fill="none" stroke="#000000" points="172,-154 172,-282 694,-282 694,-154 172,-154"/>
</g>
<g id="clust6" class="cluster">
<title>cluster_AppModule_bootstrap</title>
<polygon fill="none" stroke="#000000" points="454,-360 454,-412 578,-412 578,-360 454,-360"/>
</g>
<g id="clust14" class="cluster">
<title>cluster_CoreModule</title>
<polygon fill="none" stroke="#000000" stroke-dasharray="1,5" points="308,-70 308,-138 722,-138 722,-70 308,-70"/>
</g>
<g id="clust19" class="cluster">
<title>cluster_CoreModule_providers</title>
<polygon fill="none" stroke="#000000" points="316,-78 316,-130 714,-130 714,-78 316,-78"/>
</g>
<g id="clust20" class="cluster">
<title>cluster_HomeModule</title>
<polygon fill="none" stroke="#000000" stroke-dasharray="1,5" points="8,-146 8,-214 156,-214 156,-146 8,-146"/>
</g>
<g id="clust21" class="cluster">
<title>cluster_HomeModule_declarations</title>
<polygon fill="none" stroke="#000000" points="16,-154 16,-206 148,-206 148,-154 16,-154"/>
</g>
<g id="clust27" class="cluster">
<title>cluster_ItemsModule</title>
<polygon fill="none" stroke="#000000" stroke-dasharray="1,5" points="1620,-146 1620,-282 2221,-282 2221,-146 1620,-146"/>
</g>
<g id="clust28" class="cluster">
<title>cluster_ItemsModule_declarations</title>
<polygon fill="none" stroke="#000000" points="1788,-154 1788,-206 2213,-206 2213,-154 1788,-154"/>
</g>
<g id="clust32" class="cluster">
<title>cluster_ItemsModule_imports</title>
<polygon fill="none" stroke="#000000" points="1628,-154 1628,-206 1780,-206 1780,-154 1628,-154"/>
</g>
<g id="clust48" class="cluster">
<title>cluster_SharedModule</title>
<polygon fill="none" stroke="#000000" stroke-dasharray="1,5" points="840,-222 840,-290 1612,-290 1612,-222 840,-222"/>
</g>
<g id="clust49" class="cluster">
<title>cluster_SharedModule_declarations</title>
<polygon fill="none" stroke="#000000" points="1236,-230 1236,-282 1604,-282 1604,-230 1236,-230"/>
</g>
<g id="clust54" class="cluster">
<title>cluster_SharedModule_exports</title>
<polygon fill="none" stroke="#000000" points="848,-230 848,-282 1228,-282 1228,-230 848,-230"/>
</g>
<!-- AppComponent -->
<g id="node1" class="node">
<title>AppComponent</title>
<polygon fill="#ffffb3" stroke="#000000" points="815.9399,-274 710.0601,-274 710.0601,-238 815.9399,-238 815.9399,-274"/>
<text text-anchor="middle" x="763" y="-251.8" font-family="Times,serif" font-size="14.00" fill="#000000">AppComponent</text>
</g>
<!-- AppModule -->
<g id="node2" class="node">
<title>AppModule</title>
<polygon fill="#8dd3c7" stroke="#000000" points="557.6571,-339 554.6571,-343 533.6571,-343 530.6571,-339 474.3429,-339 474.3429,-303 557.6571,-303 557.6571,-339"/>
<text text-anchor="middle" x="516" y="-316.8" font-family="Times,serif" font-size="14.00" fill="#000000">AppModule</text>
</g>
<!-- AppComponent&#45;&gt;AppModule -->
<g id="edge1" class="edge">
<title>AppComponent&#45;&gt;AppModule</title>
<path fill="none" stroke="#000000" d="M710.178,-256C642.2028,-256 532.7585,-256 532.7585,-256 532.7585,-256 532.7585,-292.8939 532.7585,-292.8939"/>
<polygon fill="#000000" stroke="#000000" points="529.2586,-292.8938 532.7585,-302.8939 536.2586,-292.8939 529.2586,-292.8938"/>
</g>
<!-- AppComponent  -->
<g id="node8" class="node">
<title>AppComponent </title>
<polygon fill="#80b1d3" stroke="#000000" points="570.439,-404 461.561,-404 461.561,-368 570.439,-368 570.439,-404"/>
<text text-anchor="middle" x="516" y="-381.8" font-family="Times,serif" font-size="14.00" fill="#000000">AppComponent </text>
</g>
<!-- AppModule&#45;&gt;AppComponent  -->
<g id="edge7" class="edge">
<title>AppModule&#45;&gt;AppComponent </title>
<path fill="none" stroke="#000000" stroke-dasharray="1,5" d="M516,-339.1061C516,-339.1061 516,-357.991 516,-357.991"/>
<polygon fill="#000000" stroke="#000000" points="512.5001,-357.9909 516,-367.991 519.5001,-357.991 512.5001,-357.9909"/>
</g>
<!-- AppRoutingModule -->
<g id="node3" class="node">
<title>AppRoutingModule</title>
<polygon fill="#8dd3c7" stroke="#000000" points="464.2744,-198 461.2744,-202 440.2744,-202 437.2744,-198 335.7256,-198 335.7256,-162 464.2744,-162 464.2744,-198"/>
<text text-anchor="middle" x="400" y="-175.8" font-family="Times,serif" font-size="14.00" fill="#000000">AppRoutingModule</text>
</g>
<!-- AppRoutingModule&#45;&gt;AppModule -->
<g id="edge2" class="edge">
<title>AppRoutingModule&#45;&gt;AppModule</title>
<path fill="none" stroke="#000000" d="M464.4165,-180C473.4908,-180 479.8034,-180 479.8034,-180 479.8034,-180 479.8034,-292.8554 479.8034,-292.8554"/>
<polygon fill="#000000" stroke="#000000" points="476.3035,-292.8553 479.8034,-302.8554 483.3035,-292.8554 476.3035,-292.8553"/>
</g>
<!-- CoreModule -->
<g id="node4" class="node">
<title>CoreModule</title>
<polygon fill="#8dd3c7" stroke="#000000" points="569.2619,-198 566.2619,-202 545.2619,-202 542.2619,-198 482.7381,-198 482.7381,-162 569.2619,-162 569.2619,-198"/>
<text text-anchor="middle" x="526" y="-175.8" font-family="Times,serif" font-size="14.00" fill="#000000">CoreModule</text>
</g>
<!-- CoreModule&#45;&gt;AppModule -->
<g id="edge3" class="edge">
<title>CoreModule&#45;&gt;AppModule</title>
<path fill="none" stroke="#000000" d="M507.6889,-198.1446C507.6889,-198.1446 507.6889,-292.925 507.6889,-292.925"/>
<polygon fill="#000000" stroke="#000000" points="504.189,-292.925 507.6889,-302.925 511.189,-292.925 504.189,-292.925"/>
</g>
<!-- HomeModule -->
<g id="node5" class="node">
<title>HomeModule</title>
<polygon fill="#8dd3c7" stroke="#000000" points="466.7619,-274 463.7619,-278 442.7619,-278 439.7619,-274 373.2381,-274 373.2381,-238 466.7619,-238 466.7619,-274"/>
<text text-anchor="middle" x="420" y="-251.8" font-family="Times,serif" font-size="14.00" fill="#000000">HomeModule</text>
</g>
<!-- HomeModule&#45;&gt;AppModule -->
<g id="edge4" class="edge">
<title>HomeModule&#45;&gt;AppModule</title>
<path fill="none" stroke="#000000" d="M466.7994,-265C472.8476,-265 476.9876,-265 476.9876,-265 476.9876,-265 476.9876,-292.973 476.9876,-292.973"/>
<polygon fill="#000000" stroke="#000000" points="473.4877,-292.973 476.9876,-302.973 480.4877,-292.973 473.4877,-292.973"/>
</g>
<!-- PagenotfoundModule -->
<g id="node6" class="node">
<title>PagenotfoundModule</title>
<polygon fill="#8dd3c7" stroke="#000000" points="317.8132,-198 314.8132,-202 293.8132,-202 290.8132,-198 180.1868,-198 180.1868,-162 317.8132,-162 317.8132,-198"/>
<text text-anchor="middle" x="249" y="-175.8" font-family="Times,serif" font-size="14.00" fill="#000000">PagenotfoundModule</text>
</g>
<!-- PagenotfoundModule&#45;&gt;AppModule -->
<g id="edge5" class="edge">
<title>PagenotfoundModule&#45;&gt;AppModule</title>
<path fill="none" stroke="#000000" d="M249,-198.1446C249,-236.2265 249,-321 249,-321 249,-321 464.2813,-321 464.2813,-321"/>
<polygon fill="#000000" stroke="#000000" points="464.2813,-324.5001 474.2813,-321 464.2812,-317.5001 464.2813,-324.5001"/>
</g>
<!-- SharedModule -->
<g id="node7" class="node">
<title>SharedModule</title>
<polygon fill="#8dd3c7" stroke="#000000" points="686.4231,-198 683.4231,-202 662.4231,-202 659.4231,-198 587.5769,-198 587.5769,-162 686.4231,-162 686.4231,-198"/>
<text text-anchor="middle" x="637" y="-175.8" font-family="Times,serif" font-size="14.00" fill="#000000">SharedModule</text>
</g>
<!-- SharedModule&#45;&gt;AppModule -->
<g id="edge6" class="edge">
<title>SharedModule&#45;&gt;AppModule</title>
<path fill="none" stroke="#000000" d="M653.4037,-198.1446C653.4037,-236.2265 653.4037,-321 653.4037,-321 653.4037,-321 567.9722,-321 567.9722,-321"/>
<polygon fill="#000000" stroke="#000000" points="567.9723,-317.5001 557.9722,-321 567.9722,-324.5001 567.9723,-317.5001"/>
</g>
<!-- SharedModule&#45;&gt;HomeModule -->
<g id="edge11" class="edge">
<title>SharedModule&#45;&gt;HomeModule</title>
<path fill="none" stroke="#000000" d="M620.5963,-198.308C620.5963,-218.1455 620.5963,-247 620.5963,-247 620.5963,-247 476.7778,-247 476.7778,-247"/>
<polygon fill="#000000" stroke="#000000" points="476.7778,-243.5001 466.7778,-247 476.7777,-250.5001 476.7778,-243.5001"/>
</g>
<!-- ItemsModule -->
<g id="node15" class="node">
<title>ItemsModule</title>
<polygon fill="#8dd3c7" stroke="#000000" points="1908.1515,-274 1905.1515,-278 1884.1515,-278 1881.1515,-274 1817.8485,-274 1817.8485,-238 1908.1515,-238 1908.1515,-274"/>
<text text-anchor="middle" x="1863" y="-251.8" font-family="Times,serif" font-size="14.00" fill="#000000">ItemsModule</text>
</g>
<!-- SharedModule&#45;&gt;ItemsModule -->
<g id="edge16" class="edge">
<title>SharedModule&#45;&gt;ItemsModule</title>
<path fill="none" stroke="#000000" d="M686.2235,-167C884.7636,-167 1616.0768,-167 1616.0768,-167 1616.0768,-167 1616.0768,-262 1616.0768,-262 1616.0768,-262 1807.7105,-262 1807.7105,-262"/>
<polygon fill="#000000" stroke="#000000" points="1807.7105,-265.5001 1817.7105,-262 1807.7104,-258.5001 1807.7105,-265.5001"/>
</g>
<!-- MenuComponent  -->
<g id="node20" class="node">
<title>MenuComponent </title>
<polygon fill="#fb8072" stroke="#000000" points="973.9926,-274 856.0074,-274 856.0074,-238 973.9926,-238 973.9926,-274"/>
<text text-anchor="middle" x="915" y="-251.8" font-family="Times,serif" font-size="14.00" fill="#000000">MenuComponent </text>
</g>
<!-- SharedModule&#45;&gt;MenuComponent  -->
<g id="edge20" class="edge">
<title>SharedModule&#45;&gt;MenuComponent </title>
<path fill="none" stroke="#000000" stroke-dasharray="5,2" d="M686.3805,-194C766.2666,-194 915,-194 915,-194 915,-194 915,-227.7333 915,-227.7333"/>
<polygon fill="#000000" stroke="#000000" points="911.5001,-227.7333 915,-237.7333 918.5001,-227.7333 911.5001,-227.7333"/>
</g>
<!-- StateDirective  -->
<g id="node21" class="node">
<title>StateDirective </title>
<polygon fill="#fb8072" stroke="#000000" points="1219.5767,-274 1120.4233,-274 1120.4233,-238 1219.5767,-238 1219.5767,-274"/>
<text text-anchor="middle" x="1170" y="-251.8" font-family="Times,serif" font-size="14.00" fill="#000000">StateDirective </text>
</g>
<!-- SharedModule&#45;&gt;StateDirective  -->
<g id="edge21" class="edge">
<title>SharedModule&#45;&gt;StateDirective </title>
<path fill="none" stroke="#000000" stroke-dasharray="5,2" d="M686.6647,-185C818.982,-185 1170,-185 1170,-185 1170,-185 1170,-227.7157 1170,-227.7157"/>
<polygon fill="#000000" stroke="#000000" points="1166.5001,-227.7157 1170,-237.7157 1173.5001,-227.7158 1166.5001,-227.7157"/>
</g>
<!-- UserIdDirective  -->
<g id="node22" class="node">
<title>UserIdDirective </title>
<polygon fill="#fb8072" stroke="#000000" points="1101.6703,-274 992.3297,-274 992.3297,-238 1101.6703,-238 1101.6703,-274"/>
<text text-anchor="middle" x="1047" y="-251.8" font-family="Times,serif" font-size="14.00" fill="#000000">UserIdDirective </text>
</g>
<!-- SharedModule&#45;&gt;UserIdDirective  -->
<g id="edge22" class="edge">
<title>SharedModule&#45;&gt;UserIdDirective </title>
<path fill="none" stroke="#000000" stroke-dasharray="5,2" d="M686.4556,-189C795.5031,-189 1047,-189 1047,-189 1047,-189 1047,-227.692 1047,-227.692"/>
<polygon fill="#000000" stroke="#000000" points="1043.5001,-227.6919 1047,-237.692 1050.5001,-227.692 1043.5001,-227.6919"/>
</g>
<!-- CollectionService -->
<g id="node9" class="node">
<title>CollectionService</title>
<ellipse fill="#fdb462" stroke="#000000" cx="626" cy="-104" rx="80.4519" ry="18"/>
<text text-anchor="middle" x="626" y="-99.8" font-family="Times,serif" font-size="14.00" fill="#000000">CollectionService</text>
</g>
<!-- CollectionService&#45;&gt;CoreModule -->
<g id="edge8" class="edge">
<title>CollectionService&#45;&gt;CoreModule</title>
<path fill="none" stroke="#000000" d="M557.5776,-113.6255C557.5776,-113.6255 557.5776,-151.7493 557.5776,-151.7493"/>
<polygon fill="#000000" stroke="#000000" points="554.0777,-151.7492 557.5776,-161.7493 561.0777,-151.7493 554.0777,-151.7492"/>
</g>
<!-- JsonplaceholderService -->
<g id="node10" class="node">
<title>JsonplaceholderService</title>
<ellipse fill="#fdb462" stroke="#000000" cx="426" cy="-104" rx="102.4062" ry="18"/>
<text text-anchor="middle" x="426" y="-99.8" font-family="Times,serif" font-size="14.00" fill="#000000">JsonplaceholderService</text>
</g>
<!-- JsonplaceholderService&#45;&gt;CoreModule -->
<g id="edge9" class="edge">
<title>JsonplaceholderService&#45;&gt;CoreModule</title>
<path fill="none" stroke="#000000" d="M505.411,-115.5428C505.411,-115.5428 505.411,-151.8263 505.411,-151.8263"/>
<polygon fill="#000000" stroke="#000000" points="501.9111,-151.8263 505.411,-161.8263 508.9111,-151.8263 501.9111,-151.8263"/>
</g>
<!-- HomeComponent -->
<g id="node11" class="node">
<title>HomeComponent</title>
<polygon fill="#ffffb3" stroke="#000000" points="139.5451,-198 24.4549,-198 24.4549,-162 139.5451,-162 139.5451,-198"/>
<text text-anchor="middle" x="82" y="-175.8" font-family="Times,serif" font-size="14.00" fill="#000000">HomeComponent</text>
</g>
<!-- HomeComponent&#45;&gt;HomeModule -->
<g id="edge10" class="edge">
<title>HomeComponent&#45;&gt;HomeModule</title>
<path fill="none" stroke="#000000" d="M82,-198.0109C82,-220.4852 82,-256 82,-256 82,-256 363.0025,-256 363.0025,-256"/>
<polygon fill="#000000" stroke="#000000" points="363.0026,-259.5001 373.0025,-256 363.0025,-252.5001 363.0026,-259.5001"/>
</g>
<!-- AddItemComponent -->
<g id="node12" class="node">
<title>AddItemComponent</title>
<polygon fill="#ffffb3" stroke="#000000" points="2204.5954,-198 2073.4046,-198 2073.4046,-162 2204.5954,-162 2204.5954,-198"/>
<text text-anchor="middle" x="2139" y="-175.8" font-family="Times,serif" font-size="14.00" fill="#000000">AddItemComponent</text>
</g>
<!-- AddItemComponent&#45;&gt;ItemsModule -->
<g id="edge12" class="edge">
<title>AddItemComponent&#45;&gt;ItemsModule</title>
<path fill="none" stroke="#000000" d="M2139,-198.1985C2139,-222.3563 2139,-262 2139,-262 2139,-262 1918.2667,-262 1918.2667,-262"/>
<polygon fill="#000000" stroke="#000000" points="1918.2668,-258.5001 1908.2667,-262 1918.2667,-265.5001 1918.2668,-258.5001"/>
</g>
<!-- ItemComponent -->
<g id="node13" class="node">
<title>ItemComponent</title>
<polygon fill="#ffffb3" stroke="#000000" points="2055.4888,-198 1948.5112,-198 1948.5112,-162 2055.4888,-162 2055.4888,-198"/>
<text text-anchor="middle" x="2002" y="-175.8" font-family="Times,serif" font-size="14.00" fill="#000000">ItemComponent</text>
</g>
<!-- ItemComponent&#45;&gt;ItemsModule -->
<g id="edge13" class="edge">
<title>ItemComponent&#45;&gt;ItemsModule</title>
<path fill="none" stroke="#000000" d="M2002,-198.0267C2002,-218.7672 2002,-250 2002,-250 2002,-250 1918.5138,-250 1918.5138,-250"/>
<polygon fill="#000000" stroke="#000000" points="1918.5138,-246.5001 1908.5138,-250 1918.5138,-253.5001 1918.5138,-246.5001"/>
</g>
<!-- ListItemsComponent -->
<g id="node14" class="node">
<title>ListItemsComponent</title>
<polygon fill="#ffffb3" stroke="#000000" points="1930.212,-198 1795.788,-198 1795.788,-162 1930.212,-162 1930.212,-198"/>
<text text-anchor="middle" x="1863" y="-175.8" font-family="Times,serif" font-size="14.00" fill="#000000">ListItemsComponent</text>
</g>
<!-- ListItemsComponent&#45;&gt;ItemsModule -->
<g id="edge14" class="edge">
<title>ListItemsComponent&#45;&gt;ItemsModule</title>
<path fill="none" stroke="#000000" d="M1863,-198.0109C1863,-198.0109 1863,-227.855 1863,-227.855"/>
<polygon fill="#000000" stroke="#000000" points="1859.5001,-227.8549 1863,-237.855 1866.5001,-227.855 1859.5001,-227.8549"/>
</g>
<!-- ItemsRoutingModule -->
<g id="node16" class="node">
<title>ItemsRoutingModule</title>
<polygon fill="#8dd3c7" stroke="#000000" points="1771.7688,-198 1768.7688,-202 1747.7688,-202 1744.7688,-198 1636.2312,-198 1636.2312,-162 1771.7688,-162 1771.7688,-198"/>
<text text-anchor="middle" x="1704" y="-175.8" font-family="Times,serif" font-size="14.00" fill="#000000">ItemsRoutingModule</text>
</g>
<!-- ItemsRoutingModule&#45;&gt;ItemsModule -->
<g id="edge15" class="edge">
<title>ItemsRoutingModule&#45;&gt;ItemsModule</title>
<path fill="none" stroke="#000000" d="M1704,-198.0267C1704,-218.7672 1704,-250 1704,-250 1704,-250 1807.437,-250 1807.437,-250"/>
<polygon fill="#000000" stroke="#000000" points="1807.437,-253.5001 1817.437,-250 1807.4369,-246.5001 1807.437,-253.5001"/>
</g>
<!-- MenuComponent -->
<g id="node17" class="node">
<title>MenuComponent</title>
<polygon fill="#ffffb3" stroke="#000000" points="1357.9916,-274 1244.0084,-274 1244.0084,-238 1357.9916,-238 1357.9916,-274"/>
<text text-anchor="middle" x="1301" y="-251.8" font-family="Times,serif" font-size="14.00" fill="#000000">MenuComponent</text>
</g>
<!-- MenuComponent&#45;&gt;SharedModule -->
<g id="edge17" class="edge">
<title>MenuComponent&#45;&gt;SharedModule</title>
<path fill="none" stroke="#000000" d="M1301,-237.9891C1301,-215.5148 1301,-180 1301,-180 1301,-180 696.3654,-180 696.3654,-180"/>
<polygon fill="#000000" stroke="#000000" points="696.3655,-176.5001 686.3654,-180 696.3654,-183.5001 696.3655,-176.5001"/>
</g>
<!-- StateDirective -->
<g id="node18" class="node">
<title>StateDirective</title>
<polygon fill="#ffffb3" stroke="#000000" points="1596.0758,-274 1499.9242,-274 1499.9242,-238 1596.0758,-238 1596.0758,-274"/>
<text text-anchor="middle" x="1548" y="-251.8" font-family="Times,serif" font-size="14.00" fill="#000000">StateDirective</text>
</g>
<!-- StateDirective&#45;&gt;SharedModule -->
<g id="edge18" class="edge">
<title>StateDirective&#45;&gt;SharedModule</title>
<path fill="none" stroke="#000000" d="M1548,-237.9737C1548,-213.0227 1548,-171 1548,-171 1548,-171 696.3023,-171 696.3023,-171"/>
<polygon fill="#000000" stroke="#000000" points="696.3024,-167.5001 686.3023,-171 696.3023,-174.5001 696.3024,-167.5001"/>
</g>
<!-- UserIdDirective -->
<g id="node19" class="node">
<title>UserIdDirective</title>
<polygon fill="#ffffb3" stroke="#000000" points="1482.1699,-274 1375.8301,-274 1375.8301,-238 1482.1699,-238 1482.1699,-274"/>
<text text-anchor="middle" x="1429" y="-251.8" font-family="Times,serif" font-size="14.00" fill="#000000">UserIdDirective</text>
</g>
<!-- UserIdDirective&#45;&gt;SharedModule -->
<g id="edge19" class="edge">
<title>UserIdDirective&#45;&gt;SharedModule</title>
<path fill="none" stroke="#000000" d="M1429,-237.8468C1429,-214.2434 1429,-176 1429,-176 1429,-176 696.2439,-176 696.2439,-176"/>
<polygon fill="#000000" stroke="#000000" points="696.2439,-172.5001 686.2439,-176 696.2439,-179.5001 696.2439,-172.5001"/>
</g>
</g>
</svg>
